<svg width="512" height="512" viewBox="0 0 512 512" fill="none" xmlns="http://www.w3.org/2000/svg">
  <title>LEXORA application icon</title>
  <rect x="42" y="42" width="428" height="428" rx="72" fill="#FFFFFF" stroke="#E5EAF0" stroke-width="2"/>
  <g transform="translate(91 91) scale(1.2890625)">
    <path d="M58 211V63c0-6.1 4.9-11 11-11h42c4.1 0 7.9 2 10.2 5.4l15.6 22.2c2.4 3.4 6.2 5.4 10.3 5.4H204c10.5 0 19 8.5 19 19v15" stroke="#3B444C" stroke-width="13" stroke-linecap="round" stroke-linejoin="round"/>
    <rect x="84" y="88" width="41" height="13" rx="1.5" fill="#3B444C"/>
    <rect x="84" y="113" width="13" height="101" rx="1.5" fill="#3B444C"/>
    <rect x="109" y="113" width="13" height="70" rx="1.5" fill="#3B444C"/>
    <rect x="109" y="181" width="57" height="13" rx="1.5" fill="#3B444C"/>
    <rect x="84" y="205" width="82" height="13" rx="1.5" fill="#3B444C"/>
    <rect x="168" y="126" width="14" height="14" rx="1.5" fill="#B5BAC0"/>
    <rect x="194" y="126" width="14" height="14" rx="1.5" fill="#B5BAC0"/>
    <rect x="220" y="126" width="14" height="14" rx="1.5" fill="#B5BAC0"/>
    <rect x="168" y="152" width="14" height="14" rx="1.5" fill="#B5BAC0"/>
    <rect x="194" y="152" width="14" height="14" rx="1.5" fill="#B5BAC0"/>
    <rect x="220" y="152" width="14" height="14" rx="1.5" fill="#B5BAC0"/>
    <rect x="168" y="178" width="14" height="14" rx="1.5" fill="#B5BAC0"/>
    <rect x="194" y="178" width="14" height="14" rx="1.5" fill="#B5BAC0"/>
    <rect x="220" y="178" width="14" height="14" rx="1.5" fill="#3173BE"/>
  </g>
</svg>
